<svg height="512" viewBox="0 0 128 128" width="512" xmlns="http://www.w3.org/2000/svg"><g><g><path d="m22.187 84.435c0-31.813 41.813-82.688 41.813-82.688s41.812 50.875 41.812 82.688a41.813 41.813 0 0 1 -83.625 0z" fill="#0d91bd"/><g fill="#9ee2f8"><path d="m40.201 79.485h47.597v7.999h-47.597z" transform="matrix(.707 -.707 .707 .707 -40.287 69.707)"/><circle cx="79.625" cy="97.688" r="5"/><circle cx="49.797" cy="67.859" r="5"/></g></g><g><path d="m90.335 36.739a1.75 1.75 0 1 0 -3.02 1.77c11.113 18.964 16.747 34.416 16.747 45.926a40.063 40.063 0 0 1 -80.125 0c0-27.62 32.929-70.847 40.064-79.888 2.82 3.565 9.661 12.453 16.852 23.516a1.75 1.75 0 0 0 2.936-1.907c-9.469-14.572-18.349-25.412-18.437-25.52a1.81 1.81 0 0 0 -2.7 0c-1.723 2.1-42.211 51.728-42.211 83.8a43.563 43.563 0 0 0 87.125 0c-.004-12.142-5.799-28.189-17.231-47.697z"/><path d="m76.763 62.591-14.289 14.289a1.749 1.749 0 0 0 2.474 2.474l13.052-13.054 3.182 3.181-31.182 31.185-3.182-3.182 2.052-2.051a1.75 1.75 0 0 0 -2.47-2.475l-3.289 3.289a1.751 1.751 0 0 0 0 2.475l5.657 5.656a1.748 1.748 0 0 0 2.474 0l33.652-33.656a1.751 1.751 0 0 0 0-2.475l-5.657-5.656a1.748 1.748 0 0 0 -2.474 0z"/><path d="m52.981 88.847a1.752 1.752 0 0 0 2.475 0l2.906-2.907a1.749 1.749 0 0 0 -2.474-2.474l-2.907 2.906a1.751 1.751 0 0 0 0 2.475z"/><path d="m79.625 90.938a6.75 6.75 0 1 0 6.75 6.75 6.758 6.758 0 0 0 -6.75-6.75zm0 10a3.25 3.25 0 1 1 3.25-3.25 3.254 3.254 0 0 1 -3.25 3.25z"/><path d="m49.8 61.109a6.75 6.75 0 1 0 6.75 6.75 6.758 6.758 0 0 0 -6.75-6.75zm0 10a3.25 3.25 0 1 1 3.25-3.25 3.254 3.254 0 0 1 -3.25 3.25z"/></g></g></svg>