<svg height="512" viewBox="0 0 128 128" width="512" xmlns="http://www.w3.org/2000/svg"><g><g><g fill="#09607d"><path d="m66.828 101.516-9.005 9a1.75 1.75 0 1 0 2.477 2.484l9-9.005a1.75 1.75 0 0 0 -2.475-2.474z"/><path d="m81.559 101.184-9.337 9.337a1.749 1.749 0 1 0 2.478 2.479l9.337-9.337a1.749 1.749 0 0 0 -2.474-2.474z"/><path d="m95.289 101.852-8.669 8.669a1.75 1.75 0 1 0 2.48 2.479l8.669-8.669a1.75 1.75 0 0 0 -2.475-2.474z"/><path d="m111.744 102.27a1.749 1.749 0 0 0 -2.475 0l-8.25 8.251a1.749 1.749 0 1 0 2.474 2.479l8.251-8.251a1.748 1.748 0 0 0 0-2.479z"/><path d="m64.44 118.393-6.617 6.617a1.75 1.75 0 1 0 2.475 2.474l6.617-6.617a1.75 1.75 0 1 0 -2.475-2.474z"/><path d="m78.839 118.393-6.617 6.617a1.749 1.749 0 1 0 2.474 2.474l6.617-6.617a1.749 1.749 0 0 0 -2.474-2.474z"/><path d="m93.237 118.393-6.617 6.617a1.75 1.75 0 1 0 2.475 2.474l6.617-6.617a1.75 1.75 0 1 0 -2.475-2.474z"/><path d="m107.636 118.393-6.617 6.617a1.749 1.749 0 1 0 2.474 2.474l6.617-6.617a1.749 1.749 0 0 0 -2.474-2.474z"/></g><path d="m51.748 105.14a10.124 10.124 0 1 1 0-20.247c.243 0 .481.019.719.036a15.528 15.528 0 0 1 24.984-7.05 19.895 19.895 0 0 1 25.994-11.085 51.721 51.721 0 1 0 -49.976 38.391c.584 0 1.162-.025 1.742-.045z" fill="#0d91bd"/><path d="m41.624 95.017a10.124 10.124 0 0 1 10.124-10.124c.243 0 .481.019.719.036a15.528 15.528 0 0 1 24.984-7.05 19.911 19.911 0 0 1 18.5-12.554c.331 0 .654.033.981.049a45.068 45.068 0 1 0 -55.11 31.626 10.167 10.167 0 0 1 -.198-1.983z" fill="#ebe1dc"/><g fill="#0d91bd"><path d="m53.469 26.455a1.749 1.749 0 0 1 -1.75-1.75v-8a1.75 1.75 0 1 1 3.5 0v8a1.75 1.75 0 0 1 -1.75 1.75z"/><path d="m73.806 34.879a1.75 1.75 0 0 1 -1.238-2.987l5.655-5.655a1.75 1.75 0 1 1 2.477 2.475l-5.654 5.654a1.743 1.743 0 0 1 -1.24.513z"/><path d="m27.477 81.207a1.75 1.75 0 0 1 -1.237-2.987l5.654-5.655a1.75 1.75 0 0 1 2.475 2.475l-5.654 5.654a1.745 1.745 0 0 1 -1.238.513z"/><path d="m90.226 55.216h-8a1.75 1.75 0 0 1 0-3.5h8a1.75 1.75 0 0 1 0 3.5z"/><path d="m24.708 55.216h-8a1.75 1.75 0 1 1 0-3.5h8a1.75 1.75 0 1 1 0 3.5z"/><path d="m33.132 34.879a1.745 1.745 0 0 1 -1.238-.513l-5.654-5.654a1.75 1.75 0 0 1 2.475-2.475l5.654 5.655a1.75 1.75 0 0 1 -1.237 2.987z"/></g><path d="m57.173 54.493-3.7-19.562-3.7 19.562a7.244 7.244 0 1 0 7.409 0z" fill="#ffb655"/><path d="m116.185 84.893c-.113 0-.223.013-.335.017a19.9 19.9 0 0 0 -38.4-7.031 15.527 15.527 0 0 0 -24.984 7.05c-.238-.017-.476-.036-.719-.036a10.124 10.124 0 1 0 0 20.247h64.437a10.124 10.124 0 1 0 0-20.247z" fill="#beebfa"/><path d="m107.851 86.788a1.749 1.749 0 0 1 -1.749-1.722 10.2 10.2 0 0 0 -10.152-9.991 1.75 1.75 0 0 1 0-3.5 13.716 13.716 0 0 1 13.65 13.435 1.751 1.751 0 0 1 -1.722 1.778z" fill="#9ee2f8"/><path d="m58.951 88.726a1.75 1.75 0 0 1 -1.67-2.278 10.443 10.443 0 0 1 10-7.321 1.75 1.75 0 0 1 0 3.5 6.954 6.954 0 0 0 -6.66 4.876 1.751 1.751 0 0 1 -1.67 1.223z" fill="#9ee2f8"/><path d="m51.748 84.893c.243 0 .481.019.719.036a15.421 15.421 0 0 1 1.339-3.029c-.113 0-.224.015-.337.015a28.317 28.317 0 0 1 -9.605-1.672l-6.339 6.338a36.429 36.429 0 0 0 6.175 2.312 10.1 10.1 0 0 1 8.048-4z" fill="#09607d"/></g><g><path d="m53.439 26.458a1.75 1.75 0 0 0 1.75-1.75v-8a1.75 1.75 0 1 0 -3.5 0v8a1.75 1.75 0 0 0 1.75 1.75z"/><path d="m72.539 31.9a1.75 1.75 0 1 0 2.475 2.474l5.654-5.654a1.75 1.75 0 0 0 -2.475-2.475z"/><path d="m31.865 72.568-5.655 5.655a1.75 1.75 0 1 0 2.475 2.477l5.654-5.654a1.75 1.75 0 1 0 -2.474-2.475z"/><path d="m80.45 53.469a1.75 1.75 0 0 0 1.75 1.75h8a1.75 1.75 0 0 0 0-3.5h-8a1.749 1.749 0 0 0 -1.75 1.75z"/><path d="m26.428 53.469a1.75 1.75 0 0 0 -1.75-1.75h-8a1.75 1.75 0 1 0 0 3.5h8a1.751 1.751 0 0 0 1.75-1.75z"/><path d="m28.685 26.24a1.75 1.75 0 1 0 -2.475 2.475l5.655 5.654a1.749 1.749 0 0 0 2.474-2.469z"/><path d="m53.439 33.184a1.748 1.748 0 0 0 -1.719 1.424l-3.568 18.839a8.994 8.994 0 1 0 10.574 0l-3.568-18.839a1.748 1.748 0 0 0 -1.719-1.424zm2.807 22.816a5.494 5.494 0 1 1 -5.614 0 1.748 1.748 0 0 0 .822-1.177l1.985-10.482 1.985 10.482a1.745 1.745 0 0 0 .822 1.177z"/><path d="m126.279 93.27a1.749 1.749 0 0 0 -1.75 1.75 8.383 8.383 0 0 1 -8.373 8.374h-64.438a8.374 8.374 0 1 1 0-16.748c.169 0 .335.013.6.032a1.747 1.747 0 0 0 1.79-1.219 13.941 13.941 0 0 1 1.126-2.585c.014-.021.024-.046.038-.069a13.77 13.77 0 0 1 21-3.6 1.75 1.75 0 0 0 2.774-.675 18.154 18.154 0 0 1 35.022 6.413 1.751 1.751 0 0 0 1.749 1.722h.03a1.75 1.75 0 0 0 1.721-1.778 21.732 21.732 0 0 0 -12.112-19.047 53.468 53.468 0 1 0 -52.017 41.1c.507 0 1.011-.018 1.514-.036l.258-.008h6.212l-3.63 3.629a1.75 1.75 0 1 0 2.475 2.475l6.1-6.1h9.45l-3.631 3.629a1.75 1.75 0 1 0 2.479 2.471l6.105-6.1h9.45l-3.63 3.629a1.75 1.75 0 1 0 2.474 2.471l6.105-6.1h9.449l-3.63 3.629a1.75 1.75 0 1 0 2.475 2.471l6.1-6.1h6.588a11.887 11.887 0 0 0 11.877-11.88 1.749 1.749 0 0 0 -1.75-1.75zm-83.2-6.382c-.861-.266-1.711-.552-2.536-.878l3.757-3.759a29.957 29.957 0 0 0 5.118 1.132 11.862 11.862 0 0 0 -6.338 3.505zm-39.609-33.419a49.969 49.969 0 1 1 98.679 11.039 21.412 21.412 0 0 0 -3.08-.672 46.47 46.47 0 0 0 -9.607-40.247 1.75 1.75 0 0 0 -2.692 2.236 42.985 42.985 0 0 1 8.761 37.767 21.526 21.526 0 0 0 -18.791 11.583 17.273 17.273 0 0 0 -23.94 4.965 26.531 26.531 0 0 1 -8.374-1.54 1.752 1.752 0 0 0 -1.829.409l-6.339 6.339a1.748 1.748 0 0 0 .475 2.812 37.7 37.7 0 0 0 4.286 1.74 11.777 11.777 0 0 0 -1.154 4.7 43.314 43.314 0 0 1 13.574-84.453 1.75 1.75 0 0 0 0-3.5 46.814 46.814 0 0 0 -13.1 91.761 11.838 11.838 0 0 0 1.91 3.751 50.044 50.044 0 0 1 -38.779-48.69z"/><path d="m95.921 71.578a1.75 1.75 0 0 0 0 3.5 10.2 10.2 0 0 1 10.151 9.991 1.75 1.75 0 0 0 1.749 1.722h.03a1.751 1.751 0 0 0 1.721-1.778 13.714 13.714 0 0 0 -13.651-13.435z"/><path d="m57.252 86.452a1.75 1.75 0 0 0 1.142 2.2 1.727 1.727 0 0 0 .527.081 1.75 1.75 0 0 0 1.669-1.223 6.952 6.952 0 0 1 6.659-4.875 1.75 1.75 0 0 0 0-3.5 10.439 10.439 0 0 0 -9.997 7.317z"/><path d="m67.957 12.648a43.28 43.28 0 0 1 7.826 3.717 1.75 1.75 0 0 0 1.811-3 46.819 46.819 0 0 0 -8.461-4.017 1.75 1.75 0 1 0 -1.176 3.3z"/><path d="m64.41 118.4-6.617 6.617a1.75 1.75 0 1 0 2.475 2.474l6.617-6.617a1.75 1.75 0 0 0 -2.475-2.474z"/><path d="m78.81 118.4-6.619 6.617a1.75 1.75 0 1 0 2.475 2.474l6.618-6.617a1.749 1.749 0 0 0 -2.474-2.474z"/><path d="m93.208 118.4-6.617 6.617a1.749 1.749 0 1 0 2.474 2.474l6.618-6.617a1.75 1.75 0 0 0 -2.475-2.474z"/><path d="m107.606 118.4-6.617 6.617a1.75 1.75 0 1 0 2.475 2.474l6.617-6.617a1.75 1.75 0 0 0 -2.475-2.474z"/></g></g></svg>