<svg height="512" viewBox="0 0 128 128" width="512" xmlns="http://www.w3.org/2000/svg"><g><g><path d="m96 14.125a12.375 12.375 0 0 0 -24.75 0v56.875h24.75z" fill="#9ee2f8"/><path d="m96 79.869v-8.869h-24.748v8.869a24.843 24.843 0 1 0 24.75 0z" fill="#0d91bd"/><circle cx="83.627" cy="101.407" fill="#09607d" r="16.843"/><path d="m88 14.125a4.375 4.375 0 1 0 -8.75 0v56.875h8.75z" fill="#ffe477"/><path d="m51.941 39.113 9.061 9.061 4.953-4.952-9.062-9.061h7.043l7.316 4.854v-16.714l-7.317 4.856h-7.043l9.063-9.063-4.953-4.952-9.061 9.061v-7.042l6.329-9.538-5.837-3.873-3.994 6.021-3.996-6.021-5.836 3.873 6.33 9.538v7.043l-9.062-9.062-4.953 4.952 9.063 9.063h-7.043l-9.539-6.33-3.873 5.836 6.021 3.996-6.021 3.994 3.873 5.836 9.538-6.328h7.043l-9.062 9.061 4.953 4.952 9.062-9.062v7.043l-6.33 9.538 5.836 3.874 3.996-6.021 3.994 6.021 5.837-3.874-6.329-9.537z" fill="#0d91bd"/></g><g><path d="m97.752 78.88v-23.1a1.75 1.75 0 1 0 -3.5 0v13.47h-4.5v-55.125a6.125 6.125 0 1 0 -12.25 0v55.125h-4.502v-55.125a10.625 10.625 0 0 1 21.25 0v14.656a1.75 1.75 0 0 0 3.5 0v-14.656a14.125 14.125 0 0 0 -28.25 0v7.238l-6.094 4.043h-2.29l6.074-6.074a1.749 1.749 0 0 0 0-2.475l-4.953-4.952a1.75 1.75 0 0 0 -2.474 0l-6.074 6.073v-2.289l6.036-9.1a1.75 1.75 0 0 0 -.49-2.426l-5.835-3.871a1.75 1.75 0 0 0 -2.425.49l-2.537 3.823-2.538-3.823a1.75 1.75 0 0 0 -2.425-.49l-5.835 3.873a1.751 1.751 0 0 0 -.491 2.426l6.037 9.1v2.29l-6.074-6.074a1.75 1.75 0 0 0 -2.474 0l-4.953 4.952a1.751 1.751 0 0 0 0 2.475l6.075 6.074h-2.291l-9.1-6.037a1.752 1.752 0 0 0 -2.426.49l-3.871 5.839a1.751 1.751 0 0 0 .49 2.426l3.824 2.537-3.824 2.537a1.751 1.751 0 0 0 -.49 2.426l3.873 5.836a1.75 1.75 0 0 0 2.426.49l9.1-6.036h6.514a1.75 1.75 0 1 0 0-3.5h-7.044a1.754 1.754 0 0 0 -.967.292l-8.08 5.361-1.938-2.92 4.563-3.028a1.75 1.75 0 0 0 0-2.916l-4.563-3.027 1.938-2.92 8.08 5.361a1.746 1.746 0 0 0 .967.292h7.043a1.749 1.749 0 0 0 1.238-2.987l-7.822-7.824 2.478-2.478 7.822 7.819a1.749 1.749 0 0 0 2.986-1.241v-7.039a1.747 1.747 0 0 0 -.292-.968l-5.361-8.08 2.92-1.937 3.027 4.562a1.749 1.749 0 0 0 2.916 0l3.028-4.562 2.92 1.937-5.361 8.08a1.755 1.755 0 0 0 -.292.968v7.039a1.75 1.75 0 0 0 2.988 1.237l7.821-7.82 2.48 2.483-7.825 7.824a1.749 1.749 0 0 0 1.238 2.987h7.042a1.747 1.747 0 0 0 .968-.292l4.6-3.05v10.19l-4.603-3.059a1.755 1.755 0 0 0 -.968-.292h-7.038a1.749 1.749 0 0 0 -1.238 2.992l7.824 7.824-2.48 2.476-7.823-7.823a1.75 1.75 0 0 0 -2.988 1.237v7.042a1.755 1.755 0 0 0 .292.968l5.361 8.08-2.92 1.938-3.022-4.564a1.75 1.75 0 0 0 -2.916 0l-3.027 4.563-2.924-1.941 5.361-8.08a1.747 1.747 0 0 0 .292-.968v-7.04a1.749 1.749 0 0 0 -2.986-1.237l-7.825 7.825-3.715-3.716a1.75 1.75 0 0 0 -2.475 2.475l4.953 4.952a1.748 1.748 0 0 0 2.474 0l6.074-6.074v2.291l-6.037 9.1a1.75 1.75 0 0 0 .491 2.425l5.836 3.873a1.75 1.75 0 0 0 2.425-.49l2.537-3.823 2.538 3.823a1.742 1.742 0 0 0 1.111.747 1.7 1.7 0 0 0 .347.035 1.748 1.748 0 0 0 .967-.292l5.836-3.873a1.749 1.749 0 0 0 .49-2.425l-6.036-9.1v-2.29l6.074 6.073a1.748 1.748 0 0 0 2.474 0l4.953-4.952a1.749 1.749 0 0 0 0-2.475l-6.073-6.073h2.289l6.092 4.044v38.925a26.593 26.593 0 1 0 28.25 0zm-16.752-64.755a2.625 2.625 0 1 1 5.25 0v55.125h-5.25zm2.627 110.375a23.09 23.09 0 0 1 -11.5-43.114 1.75 1.75 0 0 0 .873-1.517v-7.119h21.25v7.119a1.75 1.75 0 0 0 .877 1.517 23.091 23.091 0 0 1 -11.5 43.114z"/><path d="m96 37.813a1.749 1.749 0 0 0 -1.75 1.75v5.437a1.75 1.75 0 1 0 3.5 0v-5.437a1.749 1.749 0 0 0 -1.75-1.75z"/><path d="m83.627 82.815a18.593 18.593 0 1 0 18.593 18.592 18.614 18.614 0 0 0 -18.593-18.592zm0 33.685a15.093 15.093 0 1 1 15.093-15.093 15.111 15.111 0 0 1 -15.093 15.093z"/></g></g></svg>