<?xml version="1.0"?>
<svg xmlns="http://www.w3.org/2000/svg" width="512" height="512" viewBox="0 0 128 128"><g><g><path d="M96,14.125a12.375,12.375,0,0,0-24.75,0V71H96Z" fill="#beebfa"/><path d="M71.252,54.335V14.125a12.367,12.367,0,0,1,.472-3.353h-7.4a12,12,0,0,1-8.485-3.515L50.334,1.75,44.826,7.257a12,12,0,0,1-8.485,3.515H28.552v7.789a12,12,0,0,1-3.514,8.485L19.53,32.553l5.508,5.508a12,12,0,0,1,3.514,8.485v7.789h7.789a12,12,0,0,1,8.485,3.514l5.508,5.508,5.507-5.508a12,12,0,0,1,8.485-3.514Z" fill="#ffb655"/><path d="M88,14.125a4.375,4.375,0,0,0-8.75,0V71H88Z" fill="#ffe477"/><path d="M96,79.869V71H71.252v8.869a24.843,24.843,0,1,0,24.75,0Z" fill="#0d91bd"/><circle cx="83.627" cy="101.407" r="16.843" fill="#09607d"/><circle cx="50.334" cy="32.553" r="14.344" transform="translate(7.087 74.061) rotate(-76.717)" fill="#ffe477"/></g><g><path d="M97.752,78.88V14.125a14.117,14.117,0,0,0-27.282-5.1H64.326a10.183,10.183,0,0,1-7.248-3L51.571.513a1.749,1.749,0,0,0-2.475,0L43.589,6.02a10.183,10.183,0,0,1-7.248,3H28.552a1.751,1.751,0,0,0-1.75,1.75V18.56a10.185,10.185,0,0,1-3,7.249l-5.507,5.507a1.749,1.749,0,0,0,0,2.475L23.8,39.3a10.183,10.183,0,0,1,3,7.248v7.788a1.75,1.75,0,0,0,1.75,1.75h7.789a10.183,10.183,0,0,1,7.248,3L49.1,64.594a1.752,1.752,0,0,0,2.475,0l5.507-5.508a10.183,10.183,0,0,1,7.248-3H69.5v22.8a26.593,26.593,0,1,0,28.25,0ZM83.627,3.5A10.638,10.638,0,0,1,94.252,14.125V69.25h-4.5V60.875a1.75,1.75,0,0,0-3.5,0V69.25H81V14.125a2.625,2.625,0,0,1,5.25,0V37.25a1.75,1.75,0,0,0,3.5,0V14.125a6.125,6.125,0,0,0-12.25,0V69.25H73V14.125A10.637,10.637,0,0,1,83.627,3.5Zm-19.3,49.084A13.657,13.657,0,0,0,54.6,56.612l-4.271,4.269-4.269-4.269a13.661,13.661,0,0,0-9.723-4.028H30.3V46.546a13.66,13.66,0,0,0-4.027-9.723l-4.27-4.27,4.27-4.27A13.66,13.66,0,0,0,30.3,18.56V12.522h6.039a13.66,13.66,0,0,0,9.723-4.027l4.269-4.27L54.6,8.495a13.656,13.656,0,0,0,9.722,4.027H69.6a14.137,14.137,0,0,0-.1,1.6V52.584Zm19.3,71.916a23.091,23.091,0,0,1-11.5-43.114A1.751,1.751,0,0,0,73,79.869V72.75h21.25v7.119a1.752,1.752,0,0,0,.876,1.517,23.09,23.09,0,0,1-11.5,43.114Z"/><path d="M50.333,16.459A16.094,16.094,0,1,0,66.427,32.553,16.112,16.112,0,0,0,50.333,16.459Zm0,28.688A12.594,12.594,0,1,1,62.927,32.553,12.607,12.607,0,0,1,50.333,45.147Z"/><path d="M83.627,82.815a18.613,18.613,0,0,0-18.593,18.592,1.75,1.75,0,0,0,3.5,0,15.093,15.093,0,1,1,4.426,10.678,1.75,1.75,0,1,0-2.473,2.477,18.593,18.593,0,1,0,13.14-31.747Z"/><path d="M88,44.688a1.75,1.75,0,0,0-1.75,1.75v5.25a1.75,1.75,0,0,0,3.5,0v-5.25A1.75,1.75,0,0,0,88,44.688Z"/></g></g></svg>
