<svg id="color_line" height="512" viewBox="0 0 74 74" width="512" xmlns="http://www.w3.org/2000/svg" data-name="color line"><path d="m26.7 70.522a12.772 12.772 0 0 1 -7.273-23.271v-24.822a7.273 7.273 0 0 1 14.546 0v24.822a12.772 12.772 0 0 1 -7.273 23.271z" fill="#eeefee"/><path d="m39.47 57.74a12.776 12.776 0 0 1 -12.77 12.78 12.585 12.585 0 0 1 -5.64-1.32 12.252 12.252 0 0 0 2.2.2 12.771 12.771 0 0 0 7.27-23.27v-24.83a7.249 7.249 0 0 0 -2.13-5.14 6.667 6.667 0 0 0 -1.22-.97 7.132 7.132 0 0 1 4.66 2.1 7.232 7.232 0 0 1 2.13 5.14v24.82a12.715 12.715 0 0 1 5.5 10.49z" fill="#e1e6e9"/><path d="m26.7 66.28a8.533 8.533 0 0 1 -2.816-16.587v-22.993a2.816 2.816 0 1 1 5.633 0v22.993a8.533 8.533 0 0 1 -2.817 16.587z" fill="#fe7058"/><path d="m35.23 57.74a8.527 8.527 0 0 1 -16 4.12 8.423 8.423 0 0 0 5.35 1.89 8.54 8.54 0 0 0 8.53-8.54 8.4 8.4 0 0 0 -1.06-4.1 8.471 8.471 0 0 1 3.18 6.63z" fill="#ea6453"/><path d="m16.05 21.628h-2.563a.5.5 0 1 1 0-1h2.563a.5.5 0 0 1 0 1z" fill="#323c6b"/><path d="m16.05 27.17h-1.281a.5.5 0 1 1 0-1h1.281a.5.5 0 0 1 0 1z" fill="#323c6b"/><path d="m16.05 32.713h-2.563a.5.5 0 0 1 0-1h2.563a.5.5 0 0 1 0 1z" fill="#323c6b"/><path d="m16.05 38.256h-1.281a.5.5 0 0 1 0-1h1.281a.5.5 0 0 1 0 1z" fill="#323c6b"/><path d="m16.05 43.8h-2.563a.5.5 0 0 1 0-1h2.563a.5.5 0 1 1 0 1z" fill="#323c6b"/><circle cx="51.617" cy="15.928" fill="#fcd462" r="9.239"/><path d="m60.86 15.93a9.232 9.232 0 0 1 -4 7.61 9.237 9.237 0 0 0 -12.86-12.84 9.242 9.242 0 0 1 16.86 5.23z" fill="#f7be56"/><g fill="#323c6b"><path d="m51.617 4.313a.5.5 0 0 1 -.5-.5v-1.291a.5.5 0 0 1 1 0v1.291a.5.5 0 0 1 -.5.5z"/><path d="m45.56 5.937a.5.5 0 0 1 -.433-.25l-.646-1.118a.5.5 0 1 1 .865-.5l.646 1.118a.5.5 0 0 1 -.433.75z"/><path d="m41.125 10.371a.5.5 0 0 1 -.25-.067l-1.117-.646a.5.5 0 0 1 .5-.866l1.117.646a.5.5 0 0 1 -.25.933z"/><path d="m39.5 16.428h-1.289a.5.5 0 0 1 0-1h1.289a.5.5 0 0 1 0 1z"/><path d="m40.008 23.131a.5.5 0 0 1 -.25-.933l1.117-.646a.5.5 0 0 1 .5.866l-1.117.646a.5.5 0 0 1 -.25.067z"/><path d="m44.914 28.038a.5.5 0 0 1 -.433-.75l.646-1.118a.5.5 0 1 1 .865.5l-.646 1.118a.5.5 0 0 1 -.432.25z"/><path d="m51.617 29.834a.5.5 0 0 1 -.5-.5v-1.291a.5.5 0 0 1 1 0v1.291a.5.5 0 0 1 -.5.5z"/><path d="m58.32 28.038a.5.5 0 0 1 -.433-.25l-.646-1.118a.5.5 0 1 1 .865-.5l.646 1.118a.5.5 0 0 1 -.433.75z"/><path d="m63.227 23.131a.5.5 0 0 1 -.25-.067l-1.118-.646a.5.5 0 0 1 .5-.866l1.118.646a.5.5 0 0 1 -.25.933z"/><path d="m65.022 16.428h-1.291a.5.5 0 0 1 0-1h1.291a.5.5 0 0 1 0 1z"/><path d="m62.108 10.371a.5.5 0 0 1 -.25-.933l1.118-.646a.5.5 0 0 1 .5.866l-1.118.646a.5.5 0 0 1 -.25.067z"/><path d="m57.675 5.937a.5.5 0 0 1 -.433-.75l.646-1.118a.5.5 0 1 1 .865.5l-.646 1.118a.5.5 0 0 1 -.432.25z"/><path d="m36.029 70.938a.5.5 0 0 1 -.3-.9 15.383 15.383 0 0 0 5.078-6.477.5.5 0 0 1 .924.384 16.38 16.38 0 0 1 -5.408 6.9.5.5 0 0 1 -.294.093z"/><path d="m19.665 15.458a.5.5 0 0 1 -.335-.871l.33-.3a.5.5 0 1 1 .654.756l-.314.286a.5.5 0 0 1 -.335.129z"/><path d="m22.542 13.54a.5.5 0 0 1 -.2-.957 10.758 10.758 0 0 1 8.653-.028.5.5 0 0 1 -.4.916 9.755 9.755 0 0 0 -7.847.026.5.5 0 0 1 -.206.043z"/><path d="m42.046 61.875a.5.5 0 0 1 -.486-.616c.03-.126.05-.255.07-.384l.047-.28a.5.5 0 1 1 .982.186l-.042.25c-.024.155-.049.311-.085.461a.5.5 0 0 1 -.486.383z"/><path d="m26.7 71.022a13.272 13.272 0 0 1 -7.772-24.03v-24.563a7.773 7.773 0 0 1 15.546 0v24.564a13.272 13.272 0 0 1 -7.774 24.029zm0-55.366a6.773 6.773 0 0 0 -6.772 6.773v24.822a.5.5 0 0 1 -.216.411 12.272 12.272 0 1 0 13.978 0 .5.5 0 0 1 -.216-.411v-24.822a6.774 6.774 0 0 0 -6.774-6.773z"/><path d="m26.7 66.78a9.033 9.033 0 0 1 -3.316-17.434v-22.646a3.316 3.316 0 1 1 6.633 0v22.646a9.033 9.033 0 0 1 -3.317 17.434zm0-42.407a2.323 2.323 0 0 0 -2.315 2.327v23a.5.5 0 0 1 -.335.472 8.029 8.029 0 1 0 5.3 0 .5.5 0 0 1 -.336-.472v-23a2.323 2.323 0 0 0 -2.314-2.327z"/><path d="m51.617 25.667a9.739 9.739 0 1 1 9.738-9.738 9.749 9.749 0 0 1 -9.738 9.738zm0-18.477a8.739 8.739 0 1 0 8.738 8.739 8.749 8.749 0 0 0 -8.738-8.74z"/></g><path d="m25.89 35.544a.66.66 0 0 1 1.32.034l.029 6.948a.66.66 0 1 1 -1.32-.034z" fill="#fff"/><path d="m25.911 44.848a.66.66 0 0 1 1.32.03l.02.149a.66.66 0 1 1 -1.32-.027l-.02-.149z" fill="#fff"/></svg>