<svg height="512" viewBox="0 0 128 128" width="512" xmlns="http://www.w3.org/2000/svg"><g><g><path d="m63.1 68.544-23.286-24.614h18.811a1.75 1.75 0 0 0 0-3.5h-18.811l21.416-22.643a1.75 1.75 0 0 0 -2.544-2.4l-24.207 25.6c-.027.028-.046.061-.071.091l-.008.01c-.031.038-.066.072-.093.112-.009.013-.016.027-.025.041-.027.043-.048.088-.072.132s-.048.081-.067.124c-.006.015-.011.031-.017.046-.019.049-.031.1-.046.148s-.03.086-.04.13c0 .016-.005.032-.008.048-.009.051-.012.1-.017.153s-.012.095-.013.143v.024.023c0 .048.009.1.013.144s.008.1.017.152c0 .016.005.032.008.048.01.044.027.087.04.131s.027.1.047.147c0 .015.01.031.016.046.019.043.045.083.067.124s.045.09.072.132c.009.014.016.028.025.041.027.04.062.075.093.113l.008.009c.025.03.044.063.071.092l26.073 27.557a1.75 1.75 0 1 0 2.543-2.4z" fill="#bebebe"/><path d="m24.625 12.872h11.125v102.25h-11.125z" fill="#ebe1dc"/><path d="m1.75 115.122h56.875v11.125h-56.875z" fill="#0d91bd"/><path d="m38.25 12.872h-16.125a5.562 5.562 0 0 1 -5.562-5.562 5.562 5.562 0 0 1 5.562-5.563h16.125a5.563 5.563 0 0 1 5.563 5.563 5.563 5.563 0 0 1 -5.563 5.562z" fill="#bebebe"/><path d="m63.875 74.617a5.25 5.25 0 0 1 -5.25-5.25v-54.375a5.25 5.25 0 0 1 5.25-5.25 5.25 5.25 0 0 1 5.25 5.25v54.375a5.25 5.25 0 0 1 -5.25 5.25z" fill="#0d91bd"/><path d="m126.25 50.552-57.125 15.012v-46.769l57.125 15.012z" fill="#ffb655"/><g fill="#ffe477"><path d="m84.063 61.638 8-2.102v-34.713l-8-2.103z"/><path d="m105.437 56.021 8-2.102v-23.479l-8-2.102z"/></g></g><g><path d="m24.624 91.25a1.749 1.749 0 0 0 1.75-1.75v-7.606a1.75 1.75 0 0 0 -3.5 0v7.606a1.75 1.75 0 0 0 1.75 1.75z"/><path d="m126.7 32.114-12.812-3.366-2.465-.647-18.914-4.97-3.674-.965-17.96-4.72v-2.454a7 7 0 1 0 -14 0v2.308l-19.375 20.483v-23.161h.75a7.313 7.313 0 1 0 0-14.622h-16.125a7.313 7.313 0 0 0 0 14.625h.75v53.644a1.75 1.75 0 0 0 3.5 0v-53.647h7.625v98.75h-7.625v-10.247a1.75 1.75 0 0 0 -3.5 0v10.247h-21.125a1.75 1.75 0 0 0 -1.75 1.75v11.125a1.75 1.75 0 0 0 1.75 1.753h56.875a1.75 1.75 0 0 0 1.75-1.75v-11.128a1.75 1.75 0 0 0 -1.75-1.75h-21.125v-66.8l19.375 20.488v2.307a7 7 0 1 0 14 0v-2.454l13.625-3.581 8-2.1 13.37-3.514 8-2.1 12.83-3.374a1.749 1.749 0 0 0 1.3-1.692v-16.745a1.751 1.751 0 0 0 -1.3-1.693zm-102.075-20.992h-2.5a3.813 3.813 0 0 1 0-7.625h16.125a3.813 3.813 0 1 1 0 7.625zm32.25 113.378h-53.375v-7.625h53.375zm50.312-70.745v-23.148l3.15.828 1.35.354v20.78zm-3.5.919-9.874 2.595v-30.177l9.874 2.6zm-46.812-14.244h-17.061l17.061-18.039zm-17.061 3.5h17.061v18.038zm27.561 25.437a3.5 3.5 0 1 1 -7 0v-54.375a3.5 3.5 0 0 1 7 0zm3.5-48.3 11.438 3v14.433a1.75 1.75 0 0 0 3.5 0v-13.51l2.25.591 2.25.591v32.014l-4.5 1.183v-5.1a1.75 1.75 0 0 0 -3.5 0v6.016l-11.438 3.009zm53.625 28.133-9.313 2.447v-18.938l9.313 2.447z"/></g></g></svg>